<?xml version="1.0" encoding="UTF-8" standalone="no"?>
<!-- Created with Inkscape (http://www.inkscape.org/) -->

<svg
   xmlns:dc="http://purl.org/dc/elements/1.1/"
   xmlns:cc="http://creativecommons.org/ns#"
   xmlns:rdf="http://www.w3.org/1999/02/22-rdf-syntax-ns#"
   xmlns:svg="http://www.w3.org/2000/svg"
   xmlns="http://www.w3.org/2000/svg"
   xmlns:sodipodi="http://sodipodi.sourceforge.net/DTD/sodipodi-0.dtd"
   xmlns:inkscape="http://www.inkscape.org/namespaces/inkscape"
   width="150"
   height="48"
   viewBox="0 0 39.6875 12.7"
   version="1.1"
   id="svg8"
   inkscape:version="0.92.1 r15371"
   sodipodi:docname="codeveloper.svg">
  <defs
     id="defs2">
    <style
       id="style36">
      .cls-1 {
        fill: #000;
        fill-rule: evenodd;
      }
    </style>
  </defs>
  <sodipodi:namedview
     id="base"
     pagecolor="#ffffff"
     bordercolor="#666666"
     borderopacity="1.0"
     inkscape:pageopacity="0.0"
     inkscape:pageshadow="2"
     inkscape:zoom="2.8284271"
     inkscape:cx="47.500013"
     inkscape:cy="24.24841"
     inkscape:document-units="mm"
     inkscape:current-layer="layer1"
     showgrid="false"
     units="px"
     inkscape:window-width="1366"
     inkscape:window-height="705"
     inkscape:window-x="-8"
     inkscape:window-y="-8"
     inkscape:window-maximized="1"
     inkscape:snap-text-baseline="true" />
  <metadata
     id="metadata5">
    <rdf:RDF>
      <cc:Work
         rdf:about="">
        <dc:format>image/svg+xml</dc:format>
        <dc:type
           rdf:resource="http://purl.org/dc/dcmitype/StillImage" />
        <dc:title></dc:title>
      </cc:Work>
    </rdf:RDF>
  </metadata>
  <g
     inkscape:label="Ebene 1"
     inkscape:groupmode="layer"
     id="layer1"
     transform="translate(0,-284.29998)">
    <flowRoot
       xml:space="preserve"
       id="flowRoot10"
       style="font-style:normal;font-variant:normal;font-weight:normal;font-stretch:normal;font-size:40px;line-height:1.25;font-family:'Josefin Sans';-inkscape-font-specification:'Josefin Sans';letter-spacing:0px;word-spacing:0px;fill:#000000;fill-opacity:1;stroke:none"
       transform="matrix(0.26458333,0,0,0.26458333,0,284.29998)"><flowRegion
         id="flowRegion12"><rect
           id="rect14"
           width="231.83"
           height="40.406101"
           x="4.0406103"
           y="3.553288" /></flowRegion><flowPara
         id="flowPara16">Codedd</flowPara></flowRoot>    <text
       xml:space="preserve"
       style="font-style:normal;font-variant:normal;font-weight:normal;font-stretch:normal;font-size:11.28888893px;line-height:1.25;font-family:'Josefin Sans';-inkscape-font-specification:'Josefin Sans';letter-spacing:0px;word-spacing:0px;fill:#000000;fill-opacity:1;stroke:none;stroke-width:0.26458332"
       x="12.446767"
       y="294.45856"
       id="text20"><tspan
         sodipodi:role="line"
         id="tspan18"
         x="12.446767"
         y="294.45856"
         style="font-style:normal;font-variant:normal;font-weight:300;font-stretch:normal;font-size:11.28888893px;font-family:'Josefin Sans';-inkscape-font-specification:'Josefin Sans weight=250';stroke-width:0.26458332">Pear</tspan></text>
    <path
       id="path40"
       class="cls-1"
       d="m 8.5179046,293.52312 c -0.01557,0.3547 -0.137021,0.67537 -0.367334,0.97565 -0.218664,0.28896 -0.542882,0.55735 -0.941564,0.74888 -0.19958,0.0958 -0.418876,0.17265 -0.652844,0.22497 -0.116934,0.0262 -0.237434,0.0463 -0.360398,0.0598 -0.06147,0.007 -0.123559,0.0119 -0.186079,0.0153 -0.03126,0.002 -0.062626,0.002 -0.094081,0.003 -0.031454,7e-4 -0.062997,0.002 -0.094608,0.002 -0.031862,2e-4 -0.06366,-8e-5 -0.095377,-7.1e-4 -0.031717,-6.9e-4 -0.063357,-0.002 -0.09489,-0.003 -0.063065,-0.003 -0.1257012,-0.008 -0.1877342,-0.0144 -0.1240846,-0.0129 -0.2457436,-0.0319 -0.3637792,-0.0567 -0.2361681,-0.0494 -0.4574417,-0.12039 -0.6580639,-0.20811 -0.4010883,-0.17504 -0.7224442,-0.41957 -0.936743,-0.69202 -0.2252872,-0.28312 -0.3416079,-0.59242 -0.3589963,-0.92884 -0.00219,-0.042 -0.00281,-0.0845 -0.00196,-0.12741 4.335e-4,-0.0215 0.00125,-0.043 0.00243,-0.0647 0.00118,-0.0217 0.00272,-0.0433 0.00464,-0.0653 0.00766,-0.0876 0.021177,-0.17679 0.040124,-0.26791 0.037825,-0.18225 0.09752,-0.37183 0.1737554,-0.57038 0.1219806,-0.4184 0.4215551,-0.80888 0.6075456,-1.27537 0.201002,-0.45956 0.3018638,-0.99387 0.376365,-1.53904 0.079109,-0.54101 0.1240167,-1.0923 0.3177418,-1.4785 0.094715,-0.19325 0.229174,-0.34523 0.4130311,-0.44397 0.091812,-0.0495 0.1958683,-0.0861 0.3118582,-0.10985 0.057981,-0.0119 0.118912,-0.0206 0.1826106,-0.0261 0.031844,-0.002 0.064369,-0.005 0.097559,-0.006 0.033179,-0.002 0.06702,-0.002 0.1014652,-0.002 0.017046,-7e-4 0.033987,-0.002 0.050821,-0.002 0.016833,-3.6e-4 0.033558,-7e-4 0.050158,-7e-4 0.03321,-6e-5 0.065939,7e-4 0.098144,0.002 0.06442,0.002 0.1267244,0.009 0.1865754,0.0181 0.11974,0.0181 0.229534,0.0479 0.328009,0.0891 0.197232,0.0821 0.348563,0.21069 0.45676,0.38047 0.222755,0.33722 0.282733,0.84804 0.364413,1.36645 0.07791,0.52206 0.170259,1.04459 0.367598,1.5029 0.181908,0.46503 0.480791,0.87434 0.615922,1.32266 0.08483,0.21371 0.151204,0.41815 0.193648,0.61325 0.02125,0.0976 0.03657,0.19279 0.04556,0.28578 0.0023,0.0232 0.0041,0.0464 0.0056,0.0694 0.0014,0.0229 0.0025,0.0458 0.0032,0.0685 0.0013,0.0454 9.81e-4,0.0902 -9.81e-4,0.13457 z m -1.287867,-6.76443 c -0.155326,0.20588 -0.351447,0.31945 -0.523226,0.45656 -0.171485,0.12389 -0.318627,0.27136 -0.369087,0.23966 -0.05255,-0.028 -0.0066,-0.23385 0.0071,-0.44896 0.02453,-0.22226 0.01684,-0.45365 0.107037,-0.69719 0.187929,-0.49134 0.668663,-0.83913 0.892324,-0.69624 0.234931,0.12226 0.196102,0.72555 -0.11413,1.14617 z"
       inkscape:connector-curvature="0"
       style="fill:#000000;fill-rule:evenodd;stroke-width:0.00974003" />
  </g>
</svg>
