<svg xmlns="http://www.w3.org/2000/svg" xmlns:xlink="http://www.w3.org/1999/xlink" preserveAspectRatio="xMidYMid" width="1024" height="1024" viewBox="0 0 1024 1024">
  <defs>
    <style>
      .cls-1 {
        fill: #000;
        fill-rule: evenodd;
      }
    </style>
  </defs>
  <path d="M788.813,815.599 C787.214,852.019 774.747,884.947 751.104,915.780 C728.657,945.450 695.374,973.010 654.447,992.677 C633.959,1002.523 611.447,1010.405 587.429,1015.777 C575.425,1018.465 563.055,1020.529 550.432,1021.916 C544.122,1022.610 537.748,1023.134 531.330,1023.483 C528.121,1023.658 524.901,1023.789 521.672,1023.875 C518.443,1023.962 515.205,1024.003 511.960,1024.000 C508.689,1024.020 505.425,1023.992 502.169,1023.920 C498.913,1023.847 495.665,1023.729 492.428,1023.567 C485.954,1023.244 479.524,1022.746 473.156,1022.085 C460.418,1020.764 447.929,1018.794 435.812,1016.263 C411.568,1011.197 388.853,1003.901 368.258,994.893 C327.084,976.920 294.095,951.811 272.096,923.835 C248.969,894.764 237.028,863.004 235.243,828.460 C235.019,824.143 234.954,819.782 235.042,815.377 C235.087,813.175 235.170,810.961 235.291,808.737 C235.412,806.512 235.571,804.277 235.767,802.030 C236.553,793.042 237.941,783.876 239.886,774.520 C243.769,755.805 249.897,736.339 257.723,715.951 C270.245,672.988 300.998,632.894 320.091,584.994 C340.725,537.804 351.079,482.941 358.727,426.961 C366.848,371.409 371.458,314.802 391.345,275.145 C401.068,255.301 414.871,239.697 433.745,229.557 C443.170,224.469 453.852,220.712 465.759,218.277 C471.711,217.059 477.966,216.169 484.505,215.599 C487.774,215.313 491.113,215.108 494.520,214.981 C497.926,214.854 501.400,214.806 504.936,214.835 C506.686,214.749 508.425,214.684 510.153,214.639 C511.881,214.595 513.598,214.571 515.302,214.568 C518.711,214.561 522.071,214.636 525.377,214.790 C531.990,215.098 538.386,215.722 544.530,216.649 C556.822,218.504 568.093,221.569 578.202,225.798 C598.449,234.241 613.984,247.433 625.091,264.866 C647.958,299.493 654.115,351.945 662.500,405.176 C670.498,458.783 679.978,512.437 700.236,559.498 C718.910,607.248 749.592,649.277 763.464,695.312 C772.172,717.256 778.986,738.249 783.343,758.282 C785.524,768.299 787.097,778.078 788.020,787.627 C788.250,790.015 788.440,792.388 788.590,794.746 C788.739,797.105 788.847,799.450 788.913,801.781 C789.046,806.442 789.014,811.048 788.813,815.599 ZM656.606,121.008 C640.661,142.150 620.528,153.810 602.894,167.890 C585.290,180.611 570.185,195.753 565.005,192.499 C559.610,189.637 564.325,168.486 565.732,146.398 C568.250,123.576 567.461,99.817 576.720,74.808 C596.012,24.358 645.362,-11.356 668.322,3.317 C692.439,15.870 688.453,77.819 656.606,121.008 Z" class="cls-1"/>
</svg>
